<svg xmlns="http://www.w3.org/2000/svg" viewBox="0 0 120 120">
  <defs>
    <linearGradient id="g" x1="0" x2="1" y1="0" y2="1">
      <stop offset="0%" stop-color="#10b981"/>
      <stop offset="100%" stop-color="#059669"/>
    </linearGradient>
  </defs>
  <rect width="120" height="120" rx="24" fill="url(#g)" />
  <g transform="translate(18,18) scale(0.7)" fill="#fff">
    <path d="M45 10c-8 0-15 7-15 15s7 15 15 15 15-7 15-15-7-15-15-15zm0 6a9 9 0 110 18 9 9 0 010-18z"/>
    <path d="M18 66c0-8 18-18 27-18s27 10 27 18v6H18v-6z"/>
    <path d="M12 34c0-6 12-14 18-14s18 8 18 14v4H12v-4z" opacity="0.95"/>
  </g>
</svg>
